HIERARCHY
ROOT Hips
{
	OFFSET -0.001795 -0.223333 0.028219
	CHANNELS 6 Xposition Yposition Zposition Zrotation Yrotation Xrotation 
	JOINT LeftUpLeg
	{
		OFFSET 0.069520 -0.091406 -0.006815
		CHANNELS 3 Zrotation Yrotation Xrotation
		JOINT LeftLeg
		{
			OFFSET 0.034277 -0.375199 -0.004496
			CHANNELS 3 Zrotation Yrotation Xrotation
			JOINT LeftFoot
			{
				OFFSET -0.013596 -0.397961 -0.043693
				CHANNELS 3 Zrotation Yrotation Xrotation
				JOINT LeftToe
				{
					OFFSET 0.026358 -0.055791 0.119288
					CHANNELS 3 Zrotation Yrotation Xrotation
					End Site
					{
						OFFSET 0.000000 0.000000 0.000000
					}
				}
			}
		}
	}
	JOINT RightUpLeg
	{
		OFFSET -0.067670 -0.090522 -0.004320
		CHANNELS 3 Zrotation Yrotation Xrotation
		JOINT RightLeg
		{
			OFFSET -0.038290 -0.382569 -0.008850
			CHANNELS 3 Zrotation Yrotation Xrotation
			JOINT RightFoot
			{
				OFFSET 0.015774 -0.398415 -0.042312
				CHANNELS 3 Zrotation Yrotation Xrotation
				JOINT RightToe
				{
					OFFSET -0.025372 -0.048144 0.123348
					CHANNELS 3 Zrotation Yrotation Xrotation
					End Site
					{
						OFFSET 0.000000 0.000000 0.000000
					}
				}
			}
		}
	}
	JOINT Spine
	{
		OFFSET -0.002533 0.108963 -0.026696
		CHANNELS 3 Zrotation Yrotation Xrotation
		JOINT Spine1
		{
			OFFSET 0.005487 0.135180 0.001092
			CHANNELS 3 Zrotation Yrotation Xrotation
			JOINT Spine2
			{
				OFFSET 0.001457 0.052922 0.025425
				CHANNELS 3 Zrotation Yrotation Xrotation
				JOINT Neck
				{
					OFFSET -0.002778 0.213870 -0.042857
					CHANNELS 3 Zrotation Yrotation Xrotation
					JOINT Head
					{
						OFFSET 0.005152 0.064970 0.051349
						CHANNELS 3 Zrotation Yrotation Xrotation
						End Site
						{
							OFFSET 0.000000 0.000000 0.000000
						}
					}
				}
				JOINT LeftShoulder
				{
					OFFSET 0.078845 0.121749 -0.034090
					CHANNELS 3 Zrotation Yrotation Xrotation
					JOINT LeftArm
					{
						OFFSET 0.090977 0.030469 -0.008868
						CHANNELS 3 Zrotation Yrotation Xrotation
						JOINT LeftForeArm
						{
							OFFSET 0.259612 -0.012772 -0.027456
							CHANNELS 3 Zrotation Yrotation Xrotation
							JOINT LeftHand
							{
								OFFSET 0.249234 0.008986 -0.001171
								CHANNELS 3 Zrotation Yrotation Xrotation
								End Site
								{
									OFFSET 0.000000 0.000000 0.000000
								}
							}
						}
					}
				}
				JOINT RightShoulder
				{
					OFFSET -0.081759 0.118833 -0.038615
					CHANNELS 3 Zrotation Yrotation Xrotation
					JOINT RightArm
					{
						OFFSET -0.096012 0.032551 -0.009143
						CHANNELS 3 Zrotation Yrotation Xrotation
						JOINT RightForeArm
						{
							OFFSET -0.253742 -0.013329 -0.021401
							CHANNELS 3 Zrotation Yrotation Xrotation
							JOINT RightHand
							{
								OFFSET -0.255298 0.007772 -0.005559
								CHANNELS 3 Zrotation Yrotation Xrotation
								End Site
								{
									OFFSET 0.000000 0.000000 0.000000
								}
							}
						}
					}
				}
			}
		}
	}
}
MOTION
Frames: 14
Frame Time: 0.050000
-0.044056 0.952805 0.013477 -2.884578 -8.145185 13.856016 4.935473 -0.628583 -11.353600 4.077360 -0.510801 0.670113 -0.486941 0.033235 3.180119 0.000000 0.000000 0.000000 -1.967750 1.313654 -13.343842 -2.841155 0.570219 4.547265 -0.490799 -4.535590 5.950853 0.000000 0.000000 0.000000 -1.281948 0.425151 -8.385847 1.782517 -0.656295 -5.433381 -0.872851 -0.279014 0.483285 3.072787 -2.123489 -2.951041 0.000000 0.000000 0.000000 7.251820 13.473189 -3.364158 -20.058935 -35.031123 2.809463 122.032353 -45.929416 -66.264862 0.000000 0.000000 0.000000 -12.303728 -10.844059 -0.695236 19.058307 27.301035 1.390517 -103.400043 28.554438 -33.453774 0.000000 0.000000 0.000000 
-0.045975 0.951097 0.018292 -3.350893 -8.225116 13.699267 5.531104 -0.571313 -11.126796 4.160271 -0.575461 1.508188 -1.123389 -1.491823 2.542857 0.000000 0.000000 0.000000 -1.057883 1.270024 -12.577631 -3.087265 0.614967 4.709101 -0.546092 -4.205332 5.002077 0.000000 0.000000 0.000000 -0.490242 0.461110 -8.835875 1.603058 -0.584278 -5.613233 -0.833250 0.327303 -0.596303 3.126442 -2.069945 -3.647808 0.000000 0.000000 0.000000 4.895197 17.189124 -4.808108 -28.937927 -40.295186 6.302869 123.789581 -38.424148 -58.325724 0.000000 0.000000 0.000000 -8.898743 -12.785101 -1.975215 27.086851 30.267778 3.350809 -111.106535 15.324062 -19.607925 0.000000 0.000000 0.000000 
-0.047240 0.948123 0.022075 -2.938595 -7.080079 13.765700 5.533088 -0.601881 -11.451799 4.172876 -0.600130 1.948236 -1.623060 -2.680907 2.045811 0.000000 0.000000 0.000000 -1.536318 1.140032 -11.522438 -2.630936 0.514045 4.125585 -1.010643 -4.751389 4.143877 0.000000 0.000000 0.000000 -0.233299 0.523187 -10.089689 1.192867 -0.404153 -5.876498 -1.025152 -0.031636 -1.070135 2.271840 -1.274850 -5.649556 0.000000 0.000000 0.000000 3.359227 17.487447 -5.196873 -35.177327 -44.649414 9.683435 123.625788 -32.177692 -49.464048 0.000000 0.000000 0.000000 -7.159561 -14.576834 -2.882226 36.244767 33.843449 6.220160 -119.324382 7.747178 -10.326051 0.000000 0.000000 0.000000 
-0.048288 0.944204 0.024224 -2.830574 -6.046261 13.173788 5.730535 -0.579782 -10.681134 3.502646 -0.507569 1.874886 -1.266812 -2.195408 1.346891 0.000000 0.000000 0.000000 -1.561284 1.024378 -10.415818 -2.492113 0.494683 4.085064 -1.207343 -4.637035 3.072006 0.000000 0.000000 0.000000 -0.196620 0.518316 -10.291171 0.842344 -0.253268 -5.922150 -0.546011 -0.264285 -1.852737 2.028368 -1.048930 -6.113947 0.000000 0.000000 0.000000 2.178498 17.388331 -5.401480 -37.889005 -48.219562 12.050998 121.945105 -29.213038 -43.916608 0.000000 0.000000 0.000000 -6.022888 -14.828567 -3.241907 41.068219 35.994694 8.200279 -124.642754 4.055604 -4.667220 0.000000 0.000000 0.000000 
-0.048860 0.941684 0.024598 -2.655165 -5.355072 12.729250 5.627782 -0.592276 -10.679570 3.364532 -0.552546 2.983621 -1.253616 -2.179822 1.278680 0.000000 0.000000 0.000000 -1.287536 0.923924 -9.355676 -3.177698 0.577931 3.997899 -1.257713 -4.457259 2.505952 0.000000 0.000000 0.000000 -0.029935 0.493026 -9.956752 0.548611 -0.123222 -6.195146 -0.465131 -1.050960 -1.745924 1.077101 -0.234646 -8.923456 0.000000 0.000000 0.000000 2.143729 17.580222 -5.504580 -40.733523 -51.130295 14.566339 120.068753 -26.084928 -37.661686 0.000000 0.000000 0.000000 -5.077989 -14.162438 -3.266794 44.228491 38.681789 9.995797 -127.761947 3.239179 -3.580524 0.000000 0.000000 0.000000 
-0.049012 0.938700 0.023429 -2.699292 -5.322479 12.539489 6.097913 -0.570151 -11.018833 2.670493 -0.540988 4.658987 -0.609965 -1.624999 -0.666670 0.000000 0.000000 0.000000 -1.246052 0.924664 -9.361628 -2.861858 0.607646 4.980639 -1.770796 -5.029920 1.101568 0.000000 0.000000 0.000000 -0.717785 0.454367 -9.650610 0.668291 -0.145722 -7.227007 0.170462 -0.634680 -0.770191 1.098715 -0.115742 -10.964696 0.000000 0.000000 0.000000 -0.013107 16.613745 -5.686460 -41.536768 -51.559187 14.935086 120.127891 -27.778115 -40.293963 0.000000 0.000000 0.000000 -3.934880 -13.493238 -3.415351 46.309920 37.785532 10.227875 -129.671491 7.072782 -10.961972 0.000000 0.000000 0.000000 
-0.048743 0.936900 0.021259 -2.400334 -4.935327 12.302602 6.181186 -0.560239 -10.652570 1.872652 -0.432224 4.949336 -0.829023 -2.245027 -0.968980 0.000000 0.000000 0.000000 -1.685285 0.859005 -8.740229 -2.531215 0.580365 5.238467 -2.571026 -6.699426 0.476465 0.000000 0.000000 0.000000 -1.200342 0.433970 -9.669257 0.748312 -0.191059 -6.385745 0.022712 -0.374620 -0.876295 0.924461 0.067330 -11.501687 0.000000 0.000000 0.000000 -2.433629 16.016905 -6.002077 -44.091237 -49.683204 15.034162 119.470832 -33.106389 -47.828738 0.000000 0.000000 0.000000 -1.272105 -12.581942 -3.838557 47.950534 35.224412 9.763118 -130.943876 13.689667 -24.206590 0.000000 0.000000 0.000000 
-0.048291 0.935267 0.018701 -2.445779 -4.519180 12.332934 6.027391 -0.590878 -10.999248 1.764916 -0.464706 6.124206 -0.456906 -1.774760 -1.758749 0.000000 0.000000 0.000000 -1.934486 0.850636 -8.683970 -2.192932 0.605854 6.346419 -2.996447 -7.537769 -0.054920 0.000000 0.000000 0.000000 -1.536094 0.425612 -9.853320 0.567438 -0.129982 -5.673312 0.553451 -0.214631 -0.719032 1.962389 -0.359968 -14.069357 0.000000 0.000000 0.000000 -4.739959 15.935238 -6.498942 -47.647461 -46.230150 14.717287 121.335410 -39.268280 -58.318952 0.000000 0.000000 0.000000 1.033849 -12.076469 -4.248583 51.568167 31.076988 8.870291 -132.496898 21.576194 -40.616700 0.000000 0.000000 0.000000 
-0.047831 0.932925 0.015378 -2.685623 -4.699208 12.116434 6.213546 -0.570444 -10.936446 1.276856 -0.424575 7.308920 -0.543888 -2.332774 -2.553144 0.000000 0.000000 0.000000 -2.485357 0.874583 -9.035071 -1.195430 0.581600 8.456924 -3.171312 -7.834945 -0.414324 0.000000 0.000000 0.000000 -1.488415 0.404846 -9.254147 0.619381 -0.170878 -4.903467 0.461809 0.246131 0.171366 2.390707 -0.439896 -15.940967 0.000000 0.000000 0.000000 -8.340081 16.532317 -7.613451 -48.720355 -41.657674 12.657266 125.847036 -46.468249 -73.046237 0.000000 0.000000 0.000000 3.965761 -11.657673 -4.815357 53.594928 26.334388 7.078161 -133.313537 28.986022 -55.057116 0.000000 0.000000 0.000000 
-0.047551 0.931189 0.009952 -2.590505 -4.645420 13.236348 4.961367 -0.726027 -12.552598 1.736921 -0.549577 8.469923 -0.029736 -1.879306 -4.144718 0.000000 0.000000 0.000000 -2.358393 0.988947 -10.277138 -0.957398 0.622178 9.851589 -3.728197 -8.905793 -1.368808 0.000000 0.000000 0.000000 -2.192119 0.367207 -8.376999 0.362486 -0.057766 -5.089695 0.871231 0.361766 1.836926 4.099470 -1.133384 -19.059374 0.000000 0.000000 0.000000 -10.997407 14.955220 -7.574513 -46.678538 -36.613847 9.478100 131.132721 -48.396395 -81.639600 0.000000 0.000000 0.000000 7.223899 -11.350545 -5.484340 55.606671 22.717459 5.561449 -133.722169 35.102235 -66.053949 0.000000 0.000000 0.000000 
-0.047286 0.930157 0.000567 -2.931187 -5.202466 14.366054 5.195823 -0.773344 -14.583323 1.208832 -0.485063 9.836596 0.125986 -1.462228 -4.108662 0.000000 0.000000 0.000000 -1.953320 1.183435 -12.211257 -0.628792 0.630396 10.890255 -4.065881 -9.669224 -1.687641 0.000000 0.000000 0.000000 -2.603040 0.332542 -6.743675 0.182008 0.004554 -4.607298 1.068474 0.354214 3.121415 4.796352 -1.214457 -22.362389 0.000000 0.000000 0.000000 -11.295506 14.441762 -7.393732 -44.661462 -32.929364 7.293981 134.274666 -50.834975 -88.373053 0.000000 0.000000 0.000000 9.686554 -9.935220 -5.509138 54.649433 19.858221 3.998665 -131.458914 41.429598 -73.605228 0.000000 0.000000 0.000000 
-0.047207 0.930736 -0.013052 -3.423297 -6.717392 15.852712 5.078108 -0.829619 -17.347759 1.237756 -0.516278 11.815397 0.497924 -0.889716 -5.055116 0.000000 0.000000 0.000000 -1.591726 1.452685 -14.610297 -0.688475 0.679301 11.144745 -4.213778 -9.927317 -1.988141 0.000000 0.000000 0.000000 -3.218007 0.308939 -4.255718 -0.112867 0.121574 -5.169575 1.439441 1.457868 5.229342 6.580719 -1.710785 -25.891188 0.000000 0.000000 0.000000 -9.323306 12.392006 -6.102643 -40.394147 -29.988685 5.114987 134.094792 -50.667167 -87.578857 0.000000 0.000000 0.000000 8.844820 -8.231700 -4.583244 50.901521 18.703101 2.949731 -127.823043 45.311113 -74.542988 0.000000 0.000000 0.000000 
-0.047402 0.932597 -0.029023 -4.002923 -7.564023 17.687957 5.803407 -0.768634 -20.594990 0.883449 -0.441554 13.338762 0.205848 -1.443622 -4.775061 0.000000 0.000000 0.000000 -0.615409 1.775595 -16.920675 -0.747528 0.666968 10.586536 -4.046000 -9.781807 -1.323449 0.000000 0.000000 0.000000 -3.243000 0.281061 -1.483158 -0.502463 0.276775 -5.760205 0.963056 2.698743 6.573520 7.734972 -1.882912 -28.118321 0.000000 0.000000 0.000000 -6.640034 10.289163 -4.786290 -34.556652 -28.868372 3.598513 132.354826 -51.844424 -87.019087 0.000000 0.000000 0.000000 6.320901 -7.464662 -3.717846 43.383975 19.083216 2.323583 -123.893537 48.376134 -73.483754 0.000000 0.000000 0.000000 
-0.048191 0.933286 -0.044384 -4.322231 -7.529021 21.113755 6.686434 -0.667867 -23.991266 0.938410 -0.440169 12.849386 -0.132312 -2.040360 -4.204844 0.000000 0.000000 0.000000 -0.104719 2.208824 -20.162583 -0.909733 0.651374 9.916947 -4.171768 -10.780865 0.123174 0.000000 0.000000 0.000000 -3.777329 0.348486 0.118192 -0.356107 0.230708 -6.126420 0.338673 2.712306 7.631388 8.612670 -2.254531 -28.216337 0.000000 0.000000 0.000000 -3.994125 8.608158 -3.700078 -26.948772 -27.212215 1.921731 129.475227 -53.180903 -84.993719 0.000000 0.000000 0.000000 1.021798 -7.048848 -2.644369 34.267639 18.329980 1.253343 -122.415601 46.617036 -69.198118 0.000000 0.000000 0.000000 
